REM DIRINDEX 1\2,1\3,1\4,1\5,1\6
REM DIRNAME folder01,folder02,folder03,folder04,folder05,folder06
TITLE ""
FILE "DISC1Track07.mp3" MP3
  TRACK 01 AUDIO
    TITLE "0:"
    INDEX 01 00:00:00
  TRACK 02 AUDIO
    TITLE "3:cjc129_0148"
    INDEX 01 00:00:05
  TRACK 03 AUDIO
    TITLE "0:"
    INDEX 01 00:01:19
  TRACK 04 AUDIO
    TITLE "5:cjc129_0149"
    INDEX 01 00:01:50
  TRACK 05 AUDIO
    TITLE "0:"
    INDEX 01 00:03:31
  TRACK 06 AUDIO
    TITLE "4:cjc129_0150"
    INDEX 01 00:04:23
  TRACK 07 AUDIO
    TITLE "0:"
    INDEX 01 00:05:34
  TRACK 08 AUDIO
    TITLE "6:cjc129_0151"
    INDEX 01 00:05:67
  TRACK 09 AUDIO
    TITLE "0:"
    INDEX 01 00:09:69
  TRACK 10 AUDIO
    TITLE "3:cjc129_0152"
    INDEX 01 00:11:46
  TRACK 11 AUDIO
    TITLE "0:"
    INDEX 01 00:12:54
  TRACK 12 AUDIO
    TITLE "5:cjc129_0153"
    INDEX 01 00:13:14
  TRACK 13 AUDIO
    TITLE "0:"
    INDEX 01 00:16:49
  TRACK 14 AUDIO
    TITLE "4:cjc129_0154"
    INDEX 01 00:17:39
  TRACK 15 AUDIO
    TITLE "0:"
    INDEX 01 00:18:48
  TRACK 16 AUDIO
    TITLE "6:cjc129_0155"
    INDEX 01 00:19:09
  TRACK 17 AUDIO
    TITLE "0:"
    INDEX 01 00:22:44
  TRACK 18 AUDIO
    TITLE "3:cjc129_0156"
    INDEX 01 00:24:20
  TRACK 19 AUDIO
    TITLE "0:"
    INDEX 01 00:25:46
  TRACK 20 AUDIO
    TITLE "5:cjc129_0157"
    INDEX 01 00:26:03
  TRACK 21 AUDIO
    TITLE "0:"
    INDEX 01 00:30:48
  TRACK 22 AUDIO
    TITLE "4:cjc129_0158"
    INDEX 01 00:31:41
  TRACK 23 AUDIO
    TITLE "0:"
    INDEX 01 00:32:66
  TRACK 24 AUDIO
    TITLE "6:cjc129_0159"
    INDEX 01 00:33:24
  TRACK 25 AUDIO
    TITLE "0:"
    INDEX 01 00:38:67
  TRACK 26 AUDIO
    TITLE "3:cjc129_0160"
    INDEX 01 00:40:42
  TRACK 27 AUDIO
    TITLE "0:"
    INDEX 01 00:41:57
  TRACK 28 AUDIO
    TITLE "5:cjc129_0161"
    INDEX 01 00:42:14
  TRACK 29 AUDIO
    TITLE "0:"
    INDEX 01 00:45:67
  TRACK 30 AUDIO
    TITLE "4:cjc129_0162"
    INDEX 01 00:46:58
  TRACK 31 AUDIO
    TITLE "0:"
    INDEX 01 00:47:72
  TRACK 32 AUDIO
    TITLE "6:cjc129_0163"
    INDEX 01 00:48:32
  TRACK 33 AUDIO
    TITLE "0:"
    INDEX 01 00:53:55
  TRACK 34 AUDIO
    TITLE "3:cjc129_0164"
    INDEX 01 00:55:28
  TRACK 35 AUDIO
    TITLE "0:"
    INDEX 01 00:56:67
  TRACK 36 AUDIO
    TITLE "5:cjc129_0165"
    INDEX 01 00:57:23
  TRACK 37 AUDIO
    TITLE "0:"
    INDEX 01 01:03:31
  TRACK 38 AUDIO
    TITLE "4:cjc129_0166"
    INDEX 01 01:04:21
  TRACK 39 AUDIO
    TITLE "0:"
    INDEX 01 01:05:58
  TRACK 40 AUDIO
    TITLE "6:cjc129_0167"
    INDEX 01 01:06:16
  TRACK 41 AUDIO
    TITLE "0:"
    INDEX 01 01:11:56
  TRACK 42 AUDIO
    TITLE "3:cjc129_0168"
    INDEX 01 01:13:32
  TRACK 43 AUDIO
    TITLE "0:"
    INDEX 01 01:14:43
  TRACK 44 AUDIO
    TITLE "5:cjc129_0169"
    INDEX 01 01:14:74
  TRACK 45 AUDIO
    TITLE "0:"
    INDEX 01 01:17:06
  TRACK 46 AUDIO
    TITLE "4:cjc129_0170"
    INDEX 01 01:17:73
  TRACK 47 AUDIO
    TITLE "0:"
    INDEX 01 01:19:09
  TRACK 48 AUDIO
    TITLE "6:cjc129_0171"
    INDEX 01 01:19:42
  TRACK 49 AUDIO
    TITLE "0:"
    INDEX 01 01:23:28
  TRACK 50 AUDIO
    TITLE "3:cjc129_0172"
    INDEX 01 01:25:04
  TRACK 51 AUDIO
    TITLE "0:"
    INDEX 01 01:26:25
  TRACK 52 AUDIO
    TITLE "5:cjc129_0173"
    INDEX 01 01:26:56
  TRACK 53 AUDIO
    TITLE "0:"
    INDEX 01 01:28:33
  TRACK 54 AUDIO
    TITLE "4:cjc129_0174"
    INDEX 01 01:29:25
  TRACK 55 AUDIO
    TITLE "0:"
    INDEX 01 01:30:46
  TRACK 56 AUDIO
    TITLE "6:cjc129_0175"
    INDEX 01 01:31:02
  TRACK 57 AUDIO
    TITLE "0:"
    INDEX 01 01:35:22
  TRACK 58 AUDIO
    TITLE "3:cjc129_0176"
    INDEX 01 01:36:72
  TRACK 59 AUDIO
    TITLE "0:"
    INDEX 01 01:40:09
  TRACK 60 AUDIO
    TITLE "5:cjc129_0177"
    INDEX 01 01:40:42
  TRACK 61 AUDIO
    TITLE "0:"
    INDEX 01 01:42:18
  TRACK 62 AUDIO
    TITLE "4:cjc129_0178"
    INDEX 01 01:43:13
  TRACK 63 AUDIO
    TITLE "0:"
    INDEX 01 01:46:25
  TRACK 64 AUDIO
    TITLE "6:cjc129_0179"
    INDEX 01 01:46:57
  TRACK 65 AUDIO
    TITLE "0:"
    INDEX 01 01:51:09
